<svg width="143" height="24" viewBox="0 0 143 24" fill="none" xmlns="http://www.w3.org/2000/svg">
<mask id="mask0_27_2002" style="mask-type:luminance" maskUnits="userSpaceOnUse" x="0" y="0" width="143" height="24">
<path d="M143 0H0V24H143V0Z" fill="white"/>
</mask>
<g mask="url(#mask0_27_2002)">
<path d="M3.2749 18.6V4.88931H8.42415C9.18428 4.88931 9.86471 5.05527 10.4655 5.38719C11.0785 5.70633 11.5627 6.13401 11.9182 6.67017C12.2737 7.20633 12.4515 7.80636 12.4515 8.47017C12.4515 9.18507 12.28 9.79146 11.9366 10.2893C11.6057 10.7872 11.1888 11.1638 10.6861 11.4191V11.5723C11.3604 11.8149 11.9 12.217 12.3045 12.7787C12.7214 13.3276 12.9297 13.9978 12.9297 14.7893C12.9297 15.5681 12.7335 16.2447 12.3411 16.8191C11.9611 17.3809 11.4401 17.8213 10.7781 18.1404C10.1283 18.4468 9.40494 18.6 8.60806 18.6H3.2749ZM5.75756 12.7021V16.2447H8.51609C8.93293 16.2447 9.28235 16.1681 9.56433 16.0149C9.84633 15.8617 10.0609 15.6511 10.208 15.383C10.3551 15.1149 10.4287 14.8149 10.4287 14.4829C10.4287 14.1383 10.3551 13.8319 10.208 13.5638C10.0609 13.2957 9.84019 13.0851 9.54595 12.9319C9.2517 12.7787 8.88389 12.7021 8.44254 12.7021H5.75756ZM5.75756 10.4808H8.24025C8.6203 10.4808 8.93907 10.4106 9.19652 10.2702C9.46625 10.117 9.66854 9.91275 9.8034 9.65742C9.95054 9.40209 10.0241 9.12762 10.0241 8.83401C10.0241 8.52762 9.95665 8.25315 9.82181 8.0106C9.68695 7.76805 9.49077 7.57656 9.23332 7.43613C8.97586 7.28295 8.66934 7.20633 8.31381 7.20633H5.75756V10.4808ZM18.1088 18.9064C16.9564 18.9064 16.0921 18.5362 15.5158 17.7957C14.9396 17.0553 14.6515 16.0468 14.6515 14.7702V8.83401H17.0607V14.4638C17.0607 15.1276 17.214 15.6511 17.5205 16.034C17.8392 16.4042 18.2437 16.5893 18.734 16.5893C19.2123 16.5893 19.6168 16.4681 19.9479 16.2255C20.2789 15.9702 20.5301 15.6319 20.7018 15.2106C20.8857 14.7893 20.9778 14.3234 20.9778 13.8127V8.83401H23.3868V18.6H21.1248V17.3745H20.9778C20.7937 17.6809 20.5549 17.9489 20.2605 18.1787C19.9663 18.4085 19.6353 18.5872 19.2673 18.7149C18.9118 18.8425 18.5257 18.9064 18.1088 18.9064ZM25.698 18.6V8.83401H28.1072V18.6H25.698ZM26.9118 7.76166C26.4828 7.76166 26.1149 7.60209 25.8083 7.28295C25.5021 6.96378 25.3488 6.5808 25.3488 6.13401C25.3488 5.68719 25.5021 5.3106 25.8083 5.00421C26.1149 4.68507 26.4828 4.52547 26.9118 4.52547C27.3411 4.52547 27.7027 4.68507 27.9968 5.00421C28.3034 5.3106 28.4567 5.68719 28.4567 6.13401C28.4567 6.5808 28.3034 6.96378 27.9968 7.28295C27.7027 7.60209 27.3411 7.76166 26.9118 7.76166ZM30.4213 18.6V4.88931H32.8305V18.6H30.4213ZM39.1721 18.9064C38.3138 18.9064 37.5414 18.6894 36.8548 18.2553C36.1683 17.8085 35.6229 17.1957 35.2181 16.417C34.826 15.6383 34.6297 14.7383 34.6297 13.717C34.6297 12.6957 34.826 11.7957 35.2181 11.017C35.6229 10.2383 36.1683 9.63189 36.8548 9.19785C37.5414 8.75103 38.3138 8.52762 39.1721 8.52762C39.6256 8.52762 40.0365 8.59785 40.4044 8.73825C40.772 8.87868 41.0909 9.06381 41.3606 9.29358C41.6303 9.52338 41.8386 9.76593 41.9858 10.0213H42.133L41.9858 8.64252V4.88931H44.3766V18.6H42.133V17.4319H41.9858C41.8386 17.6872 41.6303 17.9298 41.3606 18.1596C41.0909 18.3766 40.772 18.5553 40.4044 18.6958C40.0365 18.8362 39.6256 18.9064 39.1721 18.9064ZM39.5766 16.5893C40.0304 16.5893 40.447 16.4681 40.8273 16.2255C41.2194 15.983 41.532 15.6511 41.7651 15.2298C42.0103 14.7957 42.133 14.2915 42.133 13.717C42.133 13.1425 42.0103 12.6447 41.7651 12.2234C41.532 11.7893 41.2194 11.4574 40.8273 11.2276C40.447 10.9851 40.0304 10.8638 39.5766 10.8638C39.1352 10.8638 38.7183 10.9851 38.3262 11.2276C37.9462 11.4574 37.6336 11.7829 37.3881 12.2042C37.1553 12.6255 37.0389 13.1298 37.0389 13.717C37.0389 14.2915 37.1553 14.7957 37.3881 15.2298C37.6336 15.6638 37.9462 16.0021 38.3262 16.2447C38.7183 16.4745 39.1352 16.5893 39.5766 16.5893ZM52.9335 18.6L49.9544 8.83401H52.6578L54.2761 15.1723H54.4049L56.2805 8.83401H58.745L60.6206 15.1723H60.7494L62.3677 8.83401H65.0342L62.0367 18.6H59.4437L57.5312 12.2808H57.4024L55.5081 18.6H52.9335ZM66.3039 18.6V8.83401H68.7128V18.6H66.3039ZM67.5174 7.76166C67.0884 7.76166 66.7205 7.60209 66.4142 7.28295C66.1077 6.96378 65.9544 6.5808 65.9544 6.13401C65.9544 5.68719 66.1077 5.3106 66.4142 5.00421C66.7205 4.68507 67.0884 4.52547 67.5174 4.52547C67.9467 4.52547 68.3083 4.68507 68.6025 5.00421C68.909 5.3106 69.0623 5.68719 69.0623 6.13401C69.0623 6.5808 68.909 6.96378 68.6025 7.28295C68.3083 7.60209 67.9467 7.76166 67.5174 7.76166ZM70.3282 10.9787V8.83401H71.965V6.07656H74.3742V8.83401H76.6728V10.9787H74.3742V15.0191C74.3742 15.4915 74.4661 15.8425 74.6499 16.0723C74.8337 16.2893 75.1342 16.3978 75.5511 16.3978C75.7473 16.3978 75.9312 16.3723 76.1029 16.3213C76.2743 16.2574 76.4889 16.1425 76.7465 15.9766V18.4276C76.4766 18.5298 76.2008 18.6064 75.9188 18.6574C75.6491 18.7213 75.367 18.7532 75.0729 18.7532C74.1042 18.7532 73.3442 18.466 72.7925 17.8915C72.2407 17.3042 71.965 16.5 71.965 15.4787V10.9787H70.3282ZM78.6596 18.6V4.88931H81.0688V8.35527L80.9218 10.0595H81.0688C81.3384 9.61275 81.7248 9.24891 82.2273 8.96805C82.7424 8.67444 83.3063 8.52762 83.9194 8.52762C84.6918 8.52762 85.3415 8.69358 85.8687 9.0255C86.396 9.34464 86.7881 9.80424 87.0457 10.4042C87.3153 11.0042 87.4502 11.7127 87.4502 12.5298V18.6H85.041V12.8362C85.041 12.4021 84.9615 12.0447 84.8021 11.7638C84.6549 11.4702 84.4466 11.2468 84.1766 11.0936C83.9193 10.9404 83.6128 10.8638 83.2573 10.8638C82.8283 10.8638 82.448 10.9915 82.1169 11.2468C81.7862 11.4893 81.5286 11.8213 81.3448 12.2425C81.1607 12.6638 81.0688 13.1298 81.0688 13.6404V18.6H78.6596ZM93.1142 18.6L98.0426 4.88931H100.893L105.84 18.6H103.1L101.997 15.3255H96.9576L95.8541 18.6H93.1142ZM101.187 12.951L100.029 9.50421L99.5506 7.85742H99.4036L98.9254 9.50421L97.7669 12.951H101.187ZM107.6 18.6V4.88931H110.082V18.6H107.6Z" fill="#1E1E1E"/>
<path d="M122.432 5.86082L117.06 9.88025C115.933 10.7233 115.676 12.3579 116.486 13.5312L116.487 13.5337C117.297 14.7069 118.867 14.9746 119.993 14.1315L125.365 10.1121C126.492 9.269 126.749 7.63442 125.94 6.46112L125.938 6.45869C125.128 5.28542 123.558 5.01776 122.432 5.86082Z" fill="#EA4435" stroke="#1E1E1E" stroke-width="0.5" stroke-miterlimit="10"/>
<path d="M116.474 10.4624L116.472 10.4648C115.663 11.6381 115.92 13.2727 117.046 14.1158L122.419 18.1352C123.545 18.9783 125.115 18.7106 125.925 17.5373L125.927 17.5349C126.736 16.3616 126.479 14.727 125.352 13.884L119.98 9.86451C118.853 9.02145 117.284 9.28911 116.474 10.4624Z" fill="#547DBF" stroke="#1E1E1E" stroke-width="0.5" stroke-miterlimit="10"/>
<path d="M135.408 9.88236L130.035 13.9018C128.909 14.7449 128.652 16.3795 129.461 17.5527L129.463 17.5552C130.273 18.7285 131.843 18.9961 132.969 18.153L138.341 14.1336C139.468 13.2905 139.725 11.6559 138.915 10.4827L138.914 10.4802C138.104 9.30693 136.534 9.03927 135.408 9.88236Z" fill="#F7AB1B" stroke="#1E1E1E" stroke-width="0.5" stroke-miterlimit="10"/>
<path d="M129.449 6.44489L129.447 6.44732C128.637 7.62059 128.894 9.2552 130.021 10.0983L135.393 14.1177C136.52 14.9608 138.09 14.6931 138.899 13.5199L138.901 13.5174C139.711 12.3442 139.454 10.7095 138.327 9.86645L132.955 5.84702C131.828 5.00393 130.258 5.27162 129.449 6.44489Z" fill="#33A852" stroke="#1E1E1E" stroke-width="0.5" stroke-miterlimit="10"/>
</g>
</svg>
