<svg width="137" height="15" viewBox="0 0 137 15" fill="none" xmlns="http://www.w3.org/2000/svg">
<path d="M0 14.0745V0.36384H5.14925C5.90938 0.36384 6.58981 0.5298 7.19055 0.86172C7.80357 1.18086 8.28783 1.60854 8.64327 2.1447C8.9988 2.68086 9.17657 3.28089 9.17657 3.9447C9.17657 4.6596 9.00514 5.26599 8.66171 5.76387C8.33076 6.26175 7.91392 6.63834 7.41125 6.89364V7.04685C8.08554 7.2894 8.62512 7.69152 9.02963 8.25324C9.44653 8.80218 9.65483 9.47238 9.65483 10.2639C9.65483 11.0426 9.45863 11.7192 9.06622 12.2937C8.6862 12.8554 8.16524 13.2958 7.50318 13.615C6.8534 13.9214 6.13004 14.0745 5.33315 14.0745H0ZM2.48266 8.17665V11.7192H5.24119C5.65803 11.7192 6.00745 11.6426 6.28943 11.4894C6.57143 11.3362 6.78599 11.1256 6.9331 10.8575C7.08021 10.5894 7.15379 10.2894 7.15379 9.95748C7.15379 9.61281 7.08021 9.30642 6.9331 9.03834C6.78599 8.77026 6.56529 8.55963 6.27104 8.40642C5.97679 8.25324 5.60899 8.17665 5.16763 8.17665H2.48266ZM2.48266 5.95536H4.96535C5.3454 5.95536 5.66416 5.88513 5.92162 5.7447C6.19135 5.59152 6.39363 5.38728 6.5285 5.13195C6.67564 4.87662 6.74919 4.60215 6.74919 4.30854C6.74919 4.00215 6.68175 3.72768 6.54691 3.48513C6.41205 3.24258 6.21587 3.05109 5.95841 2.91066C5.70096 2.75748 5.39443 2.68086 5.03891 2.68086H2.48266V5.95536ZM14.8339 14.3809C13.6815 14.3809 12.8171 14.0107 12.2409 13.2703C11.6647 12.5298 11.3766 11.5213 11.3766 10.2447V4.30854H13.7858V9.93834C13.7858 10.6022 13.9391 11.1256 14.2456 11.5086C14.5643 11.8788 14.9688 12.0639 15.4591 12.0639C15.9374 12.0639 16.3419 11.9426 16.6729 11.7001C17.004 11.4447 17.2552 11.1064 17.4269 10.6852C17.6108 10.2639 17.7029 9.79791 17.7029 9.28728V4.30854H20.1119V14.0745H17.8499V12.849H17.7029C17.5188 13.1554 17.28 13.4235 16.9856 13.6532C16.6914 13.883 16.3603 14.0618 15.9924 14.1894C15.6369 14.3171 15.2508 14.3809 14.8339 14.3809ZM22.4231 14.0745V4.30854H24.8323V14.0745H22.4231ZM23.6369 3.23619C23.2079 3.23619 22.84 3.07662 22.5334 2.75748C22.2272 2.43831 22.0739 2.05533 22.0739 1.60854C22.0739 1.16172 22.2272 0.78513 22.5334 0.47874C22.84 0.1596 23.2079 0 23.6369 0C24.0662 0 24.4278 0.1596 24.7219 0.47874C25.0285 0.78513 25.1818 1.16172 25.1818 1.60854C25.1818 2.05533 25.0285 2.43831 24.7219 2.75748C24.4278 3.07662 24.0662 3.23619 23.6369 3.23619ZM27.1464 14.0745V0.36384H29.5556V14.0745H27.1464ZM35.8972 14.3809C35.0389 14.3809 34.2665 14.1639 33.5799 13.7299C32.8934 13.283 32.348 12.6703 31.9432 11.8916C31.551 11.1128 31.3548 10.2128 31.3548 9.19152C31.3548 8.17026 31.551 7.27026 31.9432 6.49152C32.348 5.71281 32.8934 5.10642 33.5799 4.67238C34.2665 4.22556 35.0389 4.00215 35.8972 4.00215C36.3507 4.00215 36.7616 4.07238 37.1295 4.21278C37.4971 4.35321 37.816 4.53834 38.0857 4.76811C38.3554 4.99791 38.5637 5.24046 38.7109 5.49579H38.8581L38.7109 4.11705V0.36384H41.1017V14.0745H38.8581V12.9065H38.7109C38.5637 13.1618 38.3554 13.4043 38.0857 13.6341C37.816 13.8511 37.4971 14.0299 37.1295 14.1703C36.7616 14.3107 36.3507 14.3809 35.8972 14.3809ZM36.3017 12.0639C36.7555 12.0639 37.1721 11.9426 37.5524 11.7001C37.9445 11.4575 38.2571 11.1256 38.4902 10.7043C38.7354 10.2703 38.8581 9.76599 38.8581 9.19152C38.8581 8.61705 38.7354 8.1192 38.4902 7.69791C38.2571 7.26387 37.9445 6.93195 37.5524 6.70215C37.1721 6.4596 36.7555 6.33834 36.3017 6.33834C35.8603 6.33834 35.4434 6.4596 35.0513 6.70215C34.6713 6.93195 34.3587 7.25748 34.1132 7.67877C33.8804 8.10003 33.764 8.6043 33.764 9.19152C33.764 9.76599 33.8804 10.2703 34.1132 10.7043C34.3587 11.1383 34.6713 11.4767 35.0513 11.7192C35.4434 11.949 35.8603 12.0639 36.3017 12.0639ZM49.6586 14.0745L46.6795 4.30854H49.3829L51.0012 10.6469H51.13L53.0056 4.30854H55.4701L57.3457 10.6469H57.4745L59.0928 4.30854H61.7593L58.7618 14.0745H56.1688L54.2563 7.75536H54.1275L52.2332 14.0745H49.6586ZM63.029 14.0745V4.30854H65.4379V14.0745H63.029ZM64.2425 3.23619C63.8135 3.23619 63.4456 3.07662 63.1393 2.75748C62.8328 2.43831 62.6795 2.05533 62.6795 1.60854C62.6795 1.16172 62.8328 0.78513 63.1393 0.47874C63.4456 0.1596 63.8135 0 64.2425 0C64.6718 0 65.0334 0.1596 65.3276 0.47874C65.6341 0.78513 65.7874 1.16172 65.7874 1.60854C65.7874 2.05533 65.6341 2.43831 65.3276 2.75748C65.0334 3.07662 64.6718 3.23619 64.2425 3.23619ZM67.0533 6.45324V4.30854H68.6901V1.55109H71.0993V4.30854H73.3979V6.45324H71.0993V10.4937C71.0993 10.966 71.1912 11.3171 71.375 11.5469C71.5588 11.7639 71.8593 11.8724 72.2762 11.8724C72.4724 11.8724 72.6563 11.8469 72.828 11.7958C72.9994 11.732 73.214 11.6171 73.4716 11.4511V13.9022C73.2017 14.0043 72.9259 14.0809 72.6439 14.132C72.3742 14.1958 72.0921 14.2277 71.798 14.2277C70.8293 14.2277 70.0693 13.9405 69.5176 13.366C68.9658 12.7788 68.6901 11.9745 68.6901 10.9532V6.45324H67.0533ZM75.3847 14.0745V0.36384H77.7939V3.8298L77.6469 5.53407H77.7939C78.0635 5.08728 78.4499 4.72344 78.9524 4.44258C79.4675 4.14897 80.0313 4.00215 80.6445 4.00215C81.4169 4.00215 82.0666 4.16811 82.5938 4.50003C83.1211 4.81917 83.5132 5.27877 83.7708 5.87877C84.0404 6.47877 84.1753 7.18728 84.1753 8.0043V14.0745H81.7661V8.31069C81.7661 7.87665 81.6866 7.5192 81.5272 7.23834C81.38 6.94473 81.1717 6.72132 80.9017 6.56811C80.6444 6.41493 80.3379 6.33834 79.9824 6.33834C79.5534 6.33834 79.1731 6.46599 78.842 6.72132C78.5113 6.96387 78.2537 7.29579 78.0699 7.71705C77.8858 8.13834 77.7939 8.6043 77.7939 9.11493V14.0745H75.3847ZM89.8392 14.0745L94.7677 0.36384H97.6183L102.565 14.0745H99.8252L98.7217 10.8001H93.6827L92.5792 14.0745H89.8392ZM97.9124 8.42556L96.7539 4.97874L96.2757 3.33195H96.1287L95.6505 4.97874L94.492 8.42556H97.9124ZM104.325 14.0745V0.36384H106.807V14.0745H104.325Z" fill="#1E1E1E"/>
<path d="M119.157 1.33528L113.785 5.35471C112.658 6.1978 112.401 7.83238 113.211 9.00568L113.212 9.00811C114.022 10.1814 115.592 10.4491 116.718 9.60598L122.091 5.58655C123.217 4.74346 123.474 3.10888 122.665 1.93558L122.663 1.93315C121.853 0.759877 120.284 0.492217 119.157 1.33528Z" fill="#EA4435" stroke="#1E1E1E" stroke-width="0.5" stroke-miterlimit="10"/>
<path d="M113.199 5.93681L113.197 5.93924C112.388 7.11254 112.645 8.74712 113.772 9.59021L119.144 13.6096C120.27 14.4527 121.84 14.185 122.65 13.0118L122.652 13.0093C123.461 11.836 123.204 10.2015 122.078 9.3584L116.705 5.33894C115.579 4.49588 114.009 4.76354 113.199 5.93681Z" fill="#547DBF" stroke="#1E1E1E" stroke-width="0.5" stroke-miterlimit="10"/>
<path d="M132.133 5.35678L126.761 9.37621C125.634 10.2193 125.377 11.8539 126.186 13.0272L126.188 13.0296C126.998 14.2029 128.568 14.4705 129.694 13.6275L135.066 9.60802C136.193 8.76493 136.45 7.13035 135.64 5.95708L135.639 5.95465C134.829 4.78135 133.26 4.51369 132.133 5.35678Z" fill="#F7AB1B" stroke="#1E1E1E" stroke-width="0.5" stroke-miterlimit="10"/>
<path d="M126.174 1.91949L126.172 1.92192C125.362 3.09519 125.619 4.7298 126.746 5.57289L132.118 9.59232C133.245 10.4354 134.815 10.1677 135.625 8.99445L135.626 8.99202C136.436 7.81875 136.179 6.18414 135.052 5.34105L129.68 1.32162C128.553 0.478528 126.984 0.746218 126.174 1.91949Z" fill="#33A852" stroke="#1E1E1E" stroke-width="0.5" stroke-miterlimit="10"/>
</svg>
