<svg width="854" height="302" viewBox="0 0 854 302" fill="none" xmlns="http://www.w3.org/2000/svg">
<g clip-path="url(#clip0_61_996)">
<path d="M5.27257 176.718H17.6636C22.0815 176.718 25.6615 180.296 25.6615 184.712V258.213C25.6615 280.287 43.5656 298.177 65.6471 298.177H97.6264C99.3936 298.177 100.825 296.747 100.825 294.981V250.137C100.825 248.371 99.3936 246.94 97.6264 246.94H73.0767C68.6587 246.94 65.0787 243.362 65.0787 238.947V61.3039C65.0787 56.8883 68.6587 53.3102 73.0767 53.3102H97.6264C99.3936 53.3102 100.825 51.8798 100.825 50.1136V5.26968C100.825 3.50345 99.3936 2.07306 97.6264 2.07306H65.6471C43.5615 2.07306 25.6615 19.9675 25.6615 42.0371V115.489C25.6615 119.904 22.0815 123.483 17.6636 123.483H5.27257C3.50539 123.483 2.07422 124.913 2.07422 126.679V173.517C2.07422 175.284 3.50539 176.714 5.27257 176.714V176.718Z" fill="#FF585A" stroke="black" stroke-width="4" stroke-miterlimit="10"/>
<path d="M848.727 123.532H836.336C831.918 123.532 828.339 119.954 828.339 115.539V42.0371C828.339 19.9634 810.434 2.07306 788.353 2.07306H756.374C754.606 2.07306 753.175 3.50345 753.175 5.26968V50.1136C753.175 51.8798 754.606 53.3102 756.374 53.3102H780.923C785.341 53.3102 788.921 56.8883 788.921 61.3039V238.947C788.921 243.362 785.341 246.94 780.923 246.94H756.374C754.606 246.94 753.175 248.371 753.175 250.137V294.981C753.175 296.747 754.606 298.177 756.374 298.177H788.353C810.439 298.177 828.339 280.283 828.339 258.213V184.761C828.339 180.346 831.918 176.768 836.336 176.768H848.727C850.495 176.768 851.926 175.337 851.926 173.571V126.733C851.926 124.967 850.495 123.536 848.727 123.536V123.532Z" fill="#FF585A" stroke="black" stroke-width="4" stroke-miterlimit="10"/>
<path d="M161.473 3.51172H211.896C219.097 3.51172 225.73 5.0126 231.795 8.01021C237.856 11.012 242.627 15.0917 246.111 20.2494C249.592 25.4113 251.334 31.0499 251.334 37.1695C251.334 43.6499 249.741 49.2595 246.563 53.9985C243.382 58.7416 239.208 62.3694 234.048 64.886V66.3247C240.772 68.7253 246.115 72.5355 250.077 77.7555C254.039 82.9754 256.021 89.2484 256.021 96.562C256.021 103.876 254.13 109.912 250.347 115.369C246.563 120.829 241.461 125.029 235.039 127.969C228.614 130.908 221.503 132.38 213.7 132.38H161.477V3.51172H161.473ZM210.095 56.0673C215.497 56.0673 219.757 54.5996 222.881 51.6559C226 48.7164 227.564 45.0264 227.564 40.5859C227.564 36.1455 226.033 32.6379 222.972 29.6983C219.91 26.7588 215.857 25.2869 210.817 25.2869H185.786V56.0632H210.1L210.095 56.0673ZM212.796 110.244C218.678 110.244 223.271 108.714 226.573 105.654C229.875 102.595 231.526 98.6061 231.526 93.6847C231.526 88.7633 229.841 84.7457 226.481 81.6237C223.117 78.5059 218.317 76.9428 212.074 76.9428H185.782V110.24H212.796V110.244Z" fill="black"/>
<path d="M274.564 125.182C268.918 118.466 266.102 109.162 266.102 97.2835V43.1109H289.693V94.4061C289.693 100.526 291.132 105.236 294.016 108.536C296.899 111.836 300.976 113.486 306.261 113.486C312.625 113.486 317.665 111.028 321.39 106.106C325.111 101.189 326.974 94.9493 326.974 87.3868V43.1109H350.565V132.384H328.413V120.866H326.974C324.091 125.307 320.249 128.814 315.45 131.397C310.646 133.976 305.303 135.266 299.421 135.266C288.494 135.266 280.21 131.907 274.568 125.187L274.564 125.182Z" fill="black"/>
<path d="M368.113 27.9902C365.172 24.9925 363.699 21.3938 363.699 17.1896C363.699 12.9855 365.201 9.42404 368.2 6.48033C371.199 3.54076 374.742 2.06891 378.824 2.06891C382.906 2.06891 386.627 3.54076 389.63 6.48033C392.629 9.4199 394.131 12.9897 394.131 17.1896C394.131 21.3896 392.629 24.9925 389.63 27.9902C386.627 30.9919 383.026 32.4887 378.824 32.4887C374.621 32.4887 371.05 30.9919 368.109 27.9902H368.113ZM367.125 43.1109H390.717V132.384H367.125V43.1109Z" fill="black"/>
<path d="M407.281 3.51172H430.872V132.38H407.281V3.51172Z" fill="black"/>
<path d="M461.578 129.142C455.032 125.062 449.81 119.423 445.91 112.222C442.007 105.024 440.057 96.8647 440.057 87.7433C440.057 78.622 442.007 70.4667 445.91 63.2649C449.81 56.0673 455.032 50.4287 461.578 46.3448C468.12 42.2651 475.293 40.2252 483.1 40.2252C489.339 40.2252 494.831 41.4856 499.577 44.0064C504.318 46.5272 507.89 49.7653 510.292 53.7248H511.731L510.292 41.1249V3.51172H533.701V132.38H511.731V121.579H510.292C507.89 125.539 504.318 128.81 499.577 131.389C494.831 133.968 489.339 135.257 483.1 135.257C475.293 135.257 468.12 133.217 461.578 129.138V129.142ZM499.486 110.335C503.207 108.237 506.177 105.236 508.4 101.334C510.62 97.4369 511.731 92.9052 511.731 87.7433C511.731 82.5815 510.62 78.054 508.4 74.1525C506.177 70.2552 503.207 67.2534 499.486 65.1514C495.764 63.0535 491.803 62.0004 487.601 62.0004C483.398 62.0004 479.466 63.0535 475.807 65.1514C472.144 67.2534 469.203 70.2511 466.984 74.1525C464.76 78.054 463.652 82.5856 463.652 87.7433C463.652 92.9011 464.76 97.2544 466.984 101.152C469.203 105.053 472.144 108.08 475.807 110.24C479.466 112.4 483.398 113.478 487.601 113.478C491.803 113.478 495.764 112.429 499.486 110.327V110.335Z" fill="black"/>
<path d="M159.133 209.849H185.604L200.55 266.547H201.811L219.819 209.849H243.95L261.779 266.547H263.04L277.808 209.849H303.922L275.29 299.123H250.077L231.886 242.247H230.808L212.8 299.123H187.587L159.133 209.849Z" fill="black"/>
<path d="M311.389 194.729C308.448 191.731 306.975 188.132 306.975 183.928C306.975 179.724 308.477 176.163 311.476 173.219C314.475 170.279 318.018 168.807 322.1 168.807C326.182 168.807 329.903 170.279 332.906 173.219C335.905 176.158 337.407 179.728 337.407 183.928C337.407 188.128 335.905 191.731 332.906 194.729C329.903 197.73 326.302 199.227 322.1 199.227C317.897 199.227 314.326 197.73 311.385 194.729H311.389ZM310.401 209.849H333.993V299.123H310.401V209.849Z" fill="black"/>
<path d="M376.671 299.981C373.07 298.633 370.009 296.672 367.486 294.102C361.841 288.592 359.024 280.756 359.024 270.594V230.003H343.356V209.845H359.024V183.207H382.615V209.845H404.585V230.003H382.615V266.514C382.615 271.336 383.636 274.793 385.677 276.896C387.357 278.873 390.115 279.86 393.961 279.86C396.002 279.86 397.831 279.59 399.453 279.051C401.075 278.513 402.905 277.642 404.946 276.444V299.123C399.905 301.042 394.5 302.004 388.738 302.004C384.295 302.004 380.276 301.328 376.671 299.985V299.981Z" fill="black"/>
<path d="M417.187 170.25H440.779V205.168L439.339 221.367H440.779C443.301 217.047 446.993 213.568 451.855 210.927C456.716 208.29 462.089 206.968 467.971 206.968C479.134 206.968 487.567 210.268 493.271 216.869C498.971 223.469 501.825 232.707 501.825 244.585V299.123H478.234V247.467C478.234 241.467 476.732 236.849 473.733 233.606C470.729 230.368 466.648 228.747 461.487 228.747C455.244 228.747 450.233 231.268 446.449 236.305C442.666 241.347 440.779 247.587 440.779 255.025V299.123H417.187V170.254V170.25Z" fill="black"/>
<path d="M584.841 170.25H612.573L661.017 299.118H634.185L623.561 268.342H574.039L563.233 299.118H536.401L584.841 170.25ZM615.634 246.024L604.11 213.626L599.427 198.149H597.987L593.304 213.626L581.78 246.024H615.634Z" fill="black"/>
<path d="M670.558 170.25H694.871V299.118H670.558V170.25Z" fill="black"/>
<path d="M694.867 92.8057V43.0943C694.867 37.8329 692.058 32.9737 687.504 30.3451L644.427 5.4894C639.869 2.86079 634.256 2.86079 629.697 5.4894L586.621 30.3451C582.062 32.9737 579.258 37.8329 579.258 43.0943V92.8057C579.258 98.0671 582.066 102.926 586.621 105.555L629.697 130.411C634.256 133.039 639.869 133.039 644.427 130.411L687.504 105.555C692.063 102.926 694.867 98.0671 694.867 92.8057Z" fill="#4285F4" stroke="black" stroke-width="4" stroke-miterlimit="10"/>
<path d="M667.21 71.8846C651.791 76.3541 645.477 82.6644 641.001 98.0795C639.86 102.014 634.268 102.014 633.123 98.0795C628.652 82.6685 622.338 76.3582 606.914 71.8846C602.978 70.7444 602.978 65.1555 606.914 64.0112C622.334 59.5417 628.647 53.2314 633.123 37.8163C634.264 33.8817 639.856 33.8817 641.001 37.8163C645.473 53.2273 651.787 59.5376 667.21 64.0112C671.147 65.1514 671.147 70.7403 667.21 71.8846Z" fill="white" stroke="black" stroke-width="4" stroke-miterlimit="10"/>
</g>
<defs>
<clipPath id="clip0_61_996">
<rect width="854" height="302" fill="white"/>
</clipPath>
</defs>
</svg>
