<svg width="20" height="20" viewBox="0 0 20 20" fill="none" xmlns="http://www.w3.org/2000/svg">
<path d="M15.8333 15.8334H4.16667V6.66671H15.8333M13.3333 0.833374V2.50004H6.66667V0.833374H5V2.50004H4.16667C3.24167 2.50004 2.5 3.24171 2.5 4.16671V15.8334C2.5 16.2754 2.67559 16.6993 2.98816 17.0119C3.30072 17.3244 3.72464 17.5 4.16667 17.5H15.8333C16.2754 17.5 16.6993 17.3244 17.0118 17.0119C17.3244 16.6993 17.5 16.2754 17.5 15.8334V4.16671C17.5 3.72468 17.3244 3.30076 17.0118 2.9882C16.6993 2.67564 16.2754 2.50004 15.8333 2.50004H15V0.833374M14.1667 10H10V14.1667H14.1667V10Z" fill="black"/>
</svg>
