<svg width="20" height="20" viewBox="0 0 20 20" fill="none" xmlns="http://www.w3.org/2000/svg">
<path d="M9.99984 1.66675C6.77484 1.66675 4.1665 4.27508 4.1665 7.50008C4.1665 11.8751 9.99984 18.3334 9.99984 18.3334C9.99984 18.3334 15.8332 11.8751 15.8332 7.50008C15.8332 4.27508 13.2248 1.66675 9.99984 1.66675ZM9.99984 9.58341C9.4473 9.58341 8.9174 9.36392 8.5267 8.97322C8.136 8.58252 7.9165 8.05262 7.9165 7.50008C7.9165 6.94755 8.136 6.41764 8.5267 6.02694C8.9174 5.63624 9.4473 5.41675 9.99984 5.41675C10.5524 5.41675 11.0823 5.63624 11.473 6.02694C11.8637 6.41764 12.0832 6.94755 12.0832 7.50008C12.0832 8.05262 11.8637 8.58252 11.473 8.97322C11.0823 9.36392 10.5524 9.58341 9.99984 9.58341Z" fill="black"/>
</svg>
