<svg width="261" height="38" viewBox="0 0 261 38" fill="none" xmlns="http://www.w3.org/2000/svg">
<path d="M13.0514 9.42492L4.08302 15.6859C2.20028 17.0002 1.77075 19.5485 3.12363 21.3776C4.47651 23.2068 7.09952 23.6241 8.98227 22.3097L17.9507 16.0487C19.8334 14.7344 20.263 12.1861 18.91 10.357C17.5572 8.52784 14.9342 8.11051 13.0514 9.42492Z" fill="#EA4335" stroke="#1E1E1E" stroke-width="0.815341" stroke-miterlimit="10"/>
<path d="M8.98296 15.6856C7.10021 14.3713 4.47725 14.7886 3.12437 16.6177C1.77148 18.4469 2.20101 20.9951 4.08375 22.3095L13.0522 28.5704C14.9349 29.8849 17.5579 29.4675 18.9108 27.6384C20.2637 25.8093 19.8341 23.261 17.9514 21.9466L8.98296 15.6856Z" fill="#4285F4" stroke="#1E1E1E" stroke-width="0.815341" stroke-miterlimit="10"/>
<path d="M34.7209 15.6891L25.7525 21.95C23.8697 23.2644 23.4402 25.8127 24.7931 27.6418C26.146 29.4709 28.7689 29.8883 30.6517 28.5738L39.6201 22.3129C41.5028 20.9986 41.9324 18.4503 40.5795 16.6211C39.2266 14.792 36.6036 14.3747 34.7209 15.6891Z" fill="#F9AB00" stroke="#1E1E1E" stroke-width="0.815341" stroke-miterlimit="10"/>
<path d="M30.6503 9.42248C28.7675 8.10807 26.1445 8.5254 24.7916 10.3545C23.4387 12.1837 23.8682 14.7319 25.751 16.0463L34.7194 22.3073C36.6022 23.6217 39.2252 23.2043 40.578 21.3752C41.931 19.5461 41.5014 16.9978 39.6187 15.6834L30.6503 9.42248Z" fill="#34A853" stroke="#1E1E1E" stroke-width="0.815341" stroke-miterlimit="10"/>
<path d="M46.0728 28.9557V7.98186H54.2641C55.4732 7.98186 56.5556 8.23571 57.5113 8.74348C58.4864 9.23168 59.2568 9.88591 59.8224 10.7061C60.388 11.5263 60.6708 12.4442 60.6708 13.4597C60.6708 14.5533 60.3978 15.4809 59.8517 16.2425C59.3251 17.0041 58.662 17.5802 57.8624 17.9708V18.2051C58.935 18.5762 59.7932 19.1913 60.4368 20.0506C61.0999 20.8903 61.4314 21.9156 61.4314 23.1264C61.4314 24.3176 61.1193 25.3527 60.4953 26.2314C59.8907 27.0907 59.0618 27.7645 58.0087 28.2527C56.975 28.7214 55.8243 28.9557 54.5566 28.9557H46.0728ZM50.0221 19.9334V25.3527H54.4103C55.0734 25.3527 55.6292 25.2355 56.0778 25.0011C56.5264 24.7668 56.8677 24.4446 57.1018 24.0345C57.3358 23.6244 57.4528 23.1655 57.4528 22.6577C57.4528 22.1304 57.3358 21.6617 57.1018 21.2516C56.8677 20.8415 56.5167 20.5193 56.0486 20.285C55.5805 20.0506 54.9954 19.9334 54.2933 19.9334H50.0221ZM50.0221 16.5354H53.9715C54.5761 16.5354 55.0832 16.4281 55.4928 16.2132C55.9218 15.9789 56.2436 15.6664 56.4582 15.2758C56.6922 14.8852 56.8092 14.4654 56.8092 14.0162C56.8092 13.5475 56.7019 13.1277 56.4874 12.7566C56.2729 12.3856 55.9608 12.0927 55.5513 11.8778C55.1417 11.6435 54.6541 11.5263 54.0885 11.5263H50.0221V16.5354ZM69.6703 29.4244C67.8368 29.4244 66.462 28.858 65.5454 27.7254C64.6287 26.5928 64.1704 25.0499 64.1704 23.0971V14.0162H68.0026V22.6284C68.0026 23.6439 68.2466 24.4446 68.734 25.0304C69.2409 25.5968 69.8846 25.8799 70.6652 25.8799C71.4255 25.8799 72.0693 25.6944 72.5957 25.3234C73.1222 24.9328 73.5219 24.4153 73.7949 23.7708C74.0875 23.1264 74.2337 22.4136 74.2337 21.6324V14.0162H78.0665V28.9557H74.4683V27.0809H74.2337C73.9412 27.5496 73.561 27.9597 73.0932 28.3113C72.6247 28.6628 72.0983 28.9362 71.5132 29.1315C70.9476 29.3267 70.3336 29.4244 69.6703 29.4244ZM81.7429 28.9557V14.0162H85.5756V28.9557H81.7429ZM83.6741 12.3758C82.9912 12.3758 82.4062 12.1317 81.9188 11.6435C81.4308 11.1553 81.1874 10.5694 81.1874 9.88591C81.1874 9.20238 81.4308 8.62631 81.9188 8.15762C82.4062 7.66942 82.9912 7.42529 83.6741 7.42529C84.3562 7.42529 84.9319 7.66942 85.3997 8.15762C85.8877 8.62631 86.1311 9.20238 86.1311 9.88591C86.1311 10.5694 85.8877 11.1553 85.3997 11.6435C84.9319 12.1317 84.3562 12.3758 83.6741 12.3758ZM89.2567 28.9557V7.98186H93.0888V28.9557H89.2567ZM103.177 29.4244C101.812 29.4244 100.583 29.0924 99.4911 28.4284C98.3991 27.7449 97.5309 26.8075 96.8872 25.6163C96.263 24.4251 95.9509 23.0483 95.9509 21.486C95.9509 19.9236 96.263 18.5469 96.8872 17.3556C97.5309 16.1644 98.3991 15.2368 99.4911 14.5728C100.583 13.8893 101.812 13.5475 103.177 13.5475C103.899 13.5475 104.552 13.6549 105.137 13.8698C105.722 14.0846 106.229 14.3678 106.659 14.7193C107.087 15.0708 107.419 15.4418 107.653 15.8324H107.887L107.653 13.7233V7.98186H111.456V28.9557H107.887V27.1688H107.653C107.419 27.5594 107.087 27.9304 106.659 28.282C106.229 28.614 105.722 28.8873 105.137 29.1022C104.552 29.317 103.899 29.4244 103.177 29.4244ZM103.821 25.8799C104.543 25.8799 105.205 25.6944 105.81 25.3234C106.434 24.9523 106.932 24.4446 107.302 23.8001C107.692 23.1362 107.887 22.3648 107.887 21.486C107.887 20.6072 107.692 19.8456 107.302 19.2011C106.932 18.5372 106.434 18.0294 105.81 17.6779C105.205 17.3068 104.543 17.1213 103.821 17.1213C103.118 17.1213 102.456 17.3068 101.832 17.6779C101.227 18.0294 100.729 18.5274 100.339 19.1718C99.9691 19.8163 99.7837 20.5877 99.7837 21.486C99.7837 22.3648 99.9691 23.1362 100.339 23.8001C100.729 24.4641 101.227 24.9816 101.832 25.3527C102.456 25.7042 103.118 25.8799 103.821 25.8799ZM125.069 28.9557L120.329 14.0162H124.63L127.204 23.7122H127.409L130.393 14.0162H134.313L137.297 23.7122H137.502L140.076 14.0162H144.318L139.55 28.9557H135.424L132.382 19.289H132.177L129.164 28.9557H125.069ZM146.338 28.9557V14.0162H150.17V28.9557H146.338ZM148.268 12.3758C147.586 12.3758 147.001 12.1317 146.513 11.6435C146.026 11.1553 145.782 10.5694 145.782 9.88591C145.782 9.20238 146.026 8.62631 146.513 8.15762C147.001 7.66942 147.586 7.42529 148.268 7.42529C148.951 7.42529 149.526 7.66942 149.994 8.15762C150.482 8.62631 150.726 9.20238 150.726 9.88591C150.726 10.5694 150.482 11.1553 149.994 11.6435C149.526 12.1317 148.951 12.3758 148.268 12.3758ZM152.739 17.2971V14.0162H155.343V9.79803H159.175V14.0162H162.832V17.2971H159.175V23.4779C159.175 24.2004 159.322 24.7375 159.614 25.089C159.907 25.421 160.385 25.587 161.048 25.587C161.36 25.587 161.653 25.5479 161.926 25.4698C162.199 25.3722 162.54 25.1964 162.949 24.9426V28.6921C162.52 28.8483 162.081 28.9655 161.633 29.0436C161.204 29.1412 160.755 29.19 160.288 29.19C158.747 29.19 157.537 28.7506 156.66 27.8719C155.782 26.9736 155.343 25.7432 155.343 24.1809V17.2971H152.739ZM165.993 28.9557V7.98186H169.826V13.2839L169.591 15.891H169.826C170.254 15.2075 170.869 14.6509 171.669 14.2213C172.488 13.7721 173.385 13.5475 174.36 13.5475C175.588 13.5475 176.622 13.8014 177.461 14.3092C178.299 14.7974 178.924 15.5004 179.333 16.4183C179.762 17.3361 179.976 18.42 179.976 19.6698V28.9557H176.144V20.1385C176.144 19.4745 176.018 18.9277 175.764 18.4981C175.53 18.0489 175.199 17.7072 174.769 17.4728C174.36 17.2385 173.872 17.1213 173.307 17.1213C172.624 17.1213 172.02 17.3166 171.493 17.7072C170.966 18.0782 170.557 18.586 170.264 19.2304C169.972 19.8748 169.826 20.5877 169.826 21.3688V28.9557H165.993ZM188.987 28.9557L196.827 7.98186H201.361L209.231 28.9557H204.872L203.117 23.9466H195.101L193.346 28.9557H188.987ZM201.83 20.3142L199.986 15.0415L199.226 12.5223H198.992L198.231 15.0415L196.388 20.3142H201.83ZM212.03 28.9557V7.98186H215.979V28.9557H212.03Z" fill="black"/>
<mask id="mask0_262_1503" style="mask-type:luminance" maskUnits="userSpaceOnUse" x="224" y="8" width="37" height="22">
<path d="M260.279 8.3877H224.365V29.6083H260.279V8.3877Z" fill="white"/>
</mask>
<g mask="url(#mask0_262_1503)">
<path d="M249.682 8.72803H234.961C229.297 8.72803 224.705 13.3261 224.705 18.9982C224.705 24.6702 229.297 29.2683 234.961 29.2683H249.682C255.347 29.2683 259.939 24.6702 259.939 18.9982C259.939 13.3261 255.347 8.72803 249.682 8.72803Z" fill="white" stroke="#1E1E1E" stroke-width="0.801818" stroke-linejoin="round"/>
<path d="M233.012 21.845C234.211 20.6388 234.979 19.8518 235.315 19.4847C235.627 19.1539 235.838 18.8921 235.948 18.699C236.058 18.506 236.113 18.2752 236.113 18.0058C236.113 17.8223 236.067 17.6495 235.976 17.4868C235.884 17.3248 235.748 17.1932 235.567 17.092C235.387 16.9907 235.172 16.9401 234.921 16.9401C234.59 16.9401 234.324 17.0366 234.123 17.2296C233.921 17.4227 233.789 17.6326 233.728 17.8587L233.022 17.5739C233.083 17.3781 233.193 17.1743 233.352 16.963C233.511 16.7518 233.725 16.5716 233.995 16.421C234.264 16.2712 234.578 16.1963 234.94 16.1963C235.325 16.1963 235.668 16.2786 235.967 16.444C236.266 16.6094 236.499 16.8301 236.664 17.1055C236.829 17.3808 236.911 17.6778 236.911 17.9964C236.911 18.6457 236.572 19.3099 235.893 19.9895L234.022 21.8814H236.985V22.6252H233.012V21.8443V21.845Z" fill="#1E1E1E"/>
<path d="M238.695 22.3365C238.313 22.0456 238.019 21.6508 237.815 21.1513C237.61 20.6525 237.508 20.0964 237.508 19.4842C237.508 18.872 237.61 18.3165 237.815 17.817C238.02 17.3183 238.312 16.9234 238.691 16.6318C239.07 16.3409 239.511 16.1958 240.012 16.1958C240.514 16.1958 240.945 16.3416 241.324 16.6318C241.703 16.9227 241.997 17.3176 242.204 17.817C242.412 18.3165 242.517 18.872 242.517 19.4842C242.517 20.0964 242.413 20.6525 242.204 21.1513C241.996 21.6508 241.703 22.0456 241.324 22.3365C240.945 22.6275 240.508 22.7726 240.012 22.7726C239.517 22.7726 239.078 22.6268 238.696 22.3365H238.695ZM240.915 21.694C241.175 21.4706 241.375 21.1655 241.516 20.7801C241.656 20.394 241.727 19.9627 241.727 19.4849C241.727 19.007 241.656 18.5757 241.516 18.1896C241.375 17.8035 241.175 17.4991 240.915 17.2757C240.655 17.0523 240.354 16.9403 240.012 16.9403C239.669 16.9403 239.361 17.0523 239.104 17.2757C238.847 17.4991 238.648 17.8042 238.507 18.1896C238.366 18.5757 238.296 19.007 238.296 19.4849C238.296 19.9627 238.366 20.394 238.507 20.7801C238.648 21.1662 238.847 21.4706 239.104 21.694C239.361 21.9174 239.663 22.0294 240.012 22.0294C240.36 22.0294 240.655 21.9181 240.915 21.694Z" fill="#1E1E1E"/>
<path d="M242.911 21.845C244.109 20.6388 244.877 19.8518 245.214 19.4847C245.526 19.1539 245.737 18.8921 245.846 18.699C245.956 18.506 246.012 18.2752 246.012 18.0058C246.012 17.8223 245.966 17.6495 245.874 17.4868C245.782 17.3248 245.646 17.1932 245.466 17.092C245.285 16.9907 245.07 16.9401 244.819 16.9401C244.489 16.9401 244.223 17.0366 244.021 17.2296C243.82 17.4227 243.687 17.6326 243.627 17.8587L242.92 17.5739C242.982 17.3781 243.092 17.1743 243.251 16.963C243.41 16.7518 243.623 16.5716 243.893 16.421C244.162 16.2712 244.477 16.1963 244.838 16.1963C245.224 16.1963 245.566 16.2786 245.865 16.444C246.165 16.6094 246.397 16.8301 246.562 17.1055C246.727 17.3808 246.81 17.6778 246.81 17.9964C246.81 18.6457 246.47 19.3099 245.791 19.9895L243.92 21.8814H246.883V22.6252H242.911V21.8443V21.845Z" fill="#1E1E1E"/>
<path d="M248.378 22.4692C248.051 22.2674 247.797 22.0055 247.616 21.6836C247.436 21.3623 247.346 21.0241 247.346 20.6684C247.346 20.3316 247.415 20.009 247.552 19.6992C247.69 19.3901 247.887 19.0458 248.144 18.6658L249.786 16.1948L250.411 16.6268L248.833 18.8407L248.851 18.8589C249.065 18.7117 249.334 18.6382 249.658 18.6382C249.982 18.6382 250.288 18.7273 250.594 18.9048C250.9 19.0823 251.149 19.3259 251.341 19.6351C251.534 19.9442 251.631 20.2891 251.631 20.6684C251.631 21.0478 251.533 21.3805 251.337 21.7018C251.141 22.0231 250.88 22.2822 250.553 22.478C250.226 22.6737 249.873 22.7723 249.493 22.7723C249.077 22.7723 248.706 22.671 248.379 22.4692H248.378ZM250.171 21.8496C250.379 21.7301 250.544 21.5681 250.667 21.363C250.789 21.1578 250.85 20.9296 250.85 20.6786C250.85 20.4275 250.789 20.2088 250.667 20.0036C250.545 19.7984 250.379 19.6364 250.171 19.517C249.964 19.3975 249.737 19.3381 249.492 19.3381C249.248 19.3381 249.02 19.3975 248.809 19.517C248.598 19.6364 248.431 19.7984 248.309 20.0036C248.186 20.2088 248.125 20.4335 248.125 20.6786C248.125 20.9236 248.187 21.1578 248.309 21.363C248.431 21.5681 248.598 21.7301 248.809 21.8496C249.02 21.9691 249.248 22.0285 249.492 22.0285C249.737 22.0285 249.964 21.9684 250.171 21.8496Z" fill="#1E1E1E"/>
</g>
</svg>
